<svg xmlns="http://www.w3.org/2000/svg" viewBox="0 0 64.46 91.06"><defs><style>.cls-1{fill:#ffd01f}</style></defs><g id="Слой_2" data-name="Слой 2"><g id="Isolation_Mode" data-name="Isolation Mode"><path d="M22.4 15.89h18.74L46.2 5.12A3.59 3.59 0 0042.59 0a3.62 3.62 0 00-1.66.6l-9.16 6.27L22.61.62A3.66 3.66 0 0021 0a3.59 3.59 0 00-3.61 5.1z"/><path class="cls-1" d="M1.37 66.38L6.2 61.1 5 60 .21 65.31a.79.79 0 101.16 1.07z"/><path class="cls-1" d="M7.88 61.73l-.24.66a13.59 13.59 0 00-3.56 8.5v.24a1.26 1.26 0 01-1.57 1.17 1.28 1.28 0 01-1-1.1 13.72 13.72 0 012.53-9.49l2.21-3zm55.21 4.65l-4.82-5.28 1.16-1.1 4.83 5.28a.79.79 0 01-1.17 1.07z"/><path class="cls-1" d="M56.58 61.73l.25.66a13.63 13.63 0 013.55 8.5v.24A1.26 1.26 0 0062 72.3a1.28 1.28 0 001-1.1 13.67 13.67 0 00-2.53-9.49l-2.21-3z"/><path d="M59.2 60L43.12 38.29l-2-22.4-1.29-.38a28.54 28.54 0 00-15.92-.06l-1.53.44-1.21 22.6L5.27 60l2.49 2.4 12.15-12.8a17 17 0 0112.3-5.29 17 17 0 0112.33 5.25L56.7 62.24z" fill="#00d7ff"/><path d="M42.6 62.35v16.08a1.93 1.93 0 01-1.54 1.93 1.85 1.85 0 01-2.17-1.83v-4.64A1.88 1.88 0 0037 72c-.87 0-1.82.61-1.82 1.42V89.1a1.92 1.92 0 01-1.55 1.9 1.86 1.86 0 01-2.17-1.83V77.06a1.88 1.88 0 00-2-1.89 1.88 1.88 0 00-1.79 1.87v3.68a1.92 1.92 0 01-1.54 1.93 1.85 1.85 0 01-2.13-1.8V59.16z"/><path class="cls-1" d="M43.13 59.29c0 2.89-2.51 6.28-6.23 7.27a8.4 8.4 0 01-9.31-3.69l-.32-.52a8.37 8.37 0 01-.91-6.86l2.45-6.07v-4.31l3.44-2.62 3.53 2.62.08 4.64h3.25a4.17 4.17 0 014.1 4.17v1.94z"/><path d="M39.72 54.22a1.84 1.84 0 10-3.67 0" fill="#fff"/><path d="M31.14 58.49l12.34 2.63a6.5 6.5 0 01-.43 1.88 9.46 9.46 0 01-11.48 6A10 10 0 0124 59.62c0-4.14 3.79-7.76 3.79-7.76z"/><path class="cls-1" d="M32.63 57a2.1 2.1 0 10-2.1 2.1 2.1 2.1 0 002.1-2.1z"/></g></g></svg>