<svg xmlns="http://www.w3.org/2000/svg" viewBox="0 0 20.04 20.16"><defs><pattern id="_10_ppp_10_" data-name="10 ppp 10%" width="28.8" height="28.8" patternTransform="matrix(1.4 0 0 1.4 334.21 -41.56)" patternUnits="userSpaceOnUse"><path fill="none" d="M0 0h28.8v28.8H0z"/><path class="cls-2" d="M28.8 29.52a.72.72 0 10-.72-.72.72.72 0 00.72.72zm-14.4 0a.72.72 0 10-.72-.72.72.72 0 00.72.72zm-14.4 0a.72.72 0 000-1.44.72.72 0 00-.72.72.72.72 0 00.72.72zm28.8-14.4a.72.72 0 10-.72-.72.72.72 0 00.72.72zm-14.4 0a.72.72 0 10-.72-.72.72.72 0 00.72.72zm-14.4 0a.72.72 0 000-1.44.72.72 0 00-.72.72.72.72 0 00.72.72z"/><circle class="cls-2" cx="28.8" r=".72"/><circle class="cls-2" cx="14.4" r=".72"/><path class="cls-2" d="M0 .72A.72.72 0 00.72 0 .72.72 0 000-.72.72.72 0 00-.72 0 .72.72 0 000 .72z"/><circle class="cls-2" cx="-14.4" r=".72"/><path class="cls-2" d="M7.2 22.32a.72.72 0 10-.72-.72.72.72 0 00.72.72zm14.4 0a.72.72 0 10-.72-.72.72.72 0 00.72.72zM7.2 7.92a.72.72 0 10-.72-.72.72.72 0 00.72.72zm14.4 0a.72.72 0 10-.72-.72.72.72 0 00.72.72zm-28.8 0a.72.72 0 00.72-.72.72.72 0 00-.72-.72.72.72 0 00-.72.72.72.72 0 00.72.72z"/></pattern><style>.cls-2{fill:#1d1d1b}</style></defs><g style="isolation:isolate"><g id="Слой_2" data-name="Слой 2"><g id="Layer_1" data-name="Layer 1"><path fill="#a770ff" d="M0 0h20.04v20.16H0z"/><path style="mix-blend-mode:soft-light" fill="url(#_10_ppp_10_)" d="M0 0h20.04v20.16H0z"/></g></g></g></svg>