<svg xmlns="http://www.w3.org/2000/svg" viewBox="0 0 15.62 23.05"><g data-name="Слой 2"><g data-name="Isolation Mode"><path d="M4.53 16.56a5.73 5.73 0 01.78-3.26 11.59 11.59 0 012.79-2.52 4.92 4.92 0 001.65-1.62 4.14 4.14 0 00.6-2.23 3.05 3.05 0 00-.7-2.09 2.56 2.56 0 00-2-.78 2.49 2.49 0 00-1.75.64 2.51 2.51 0 00-.73 1.9H0v-.09a5.67 5.67 0 012.07-4.88A8.88 8.88 0 017.65 0a8.52 8.52 0 015.84 1.87 6.4 6.4 0 012.13 5.06 6 6 0 01-1.16 3.59 8.16 8.16 0 01-3 2.57 3.67 3.67 0 00-1.35 1.42 5 5 0 00-.35 2zm5.26 6.49H4.54v-4.21h5.25z" fill="#00d7ff"/><path d="M4.53 16.56a5.73 5.73 0 01.78-3.26 11.59 11.59 0 012.79-2.52 4.92 4.92 0 001.65-1.62 4.14 4.14 0 00.6-2.23 3.05 3.05 0 00-.7-2.09 2.56 2.56 0 00-2-.78 2.49 2.49 0 00-1.75.64 2.51 2.51 0 00-.73 1.9H0v-.09a5.67 5.67 0 012.07-4.88A8.88 8.88 0 017.65 0a8.52 8.52 0 015.84 1.87 6.4 6.4 0 012.13 5.06 6 6 0 01-1.16 3.59 8.16 8.16 0 01-3 2.57 3.67 3.67 0 00-1.35 1.42 5 5 0 00-.35 2zm5.26 6.49H4.54v-4.21h5.25z" fill="#ff63be"/></g></g></svg>