<svg xmlns="http://www.w3.org/2000/svg" viewBox="0 0 56.95 96.36"><defs><style>.cls-1{fill:#ff63be}.cls-4{fill:#00d7ff}</style></defs><g id="Слой_2" data-name="Слой 2"><g id="Isolation_Mode" data-name="Isolation Mode"><path d="M32 94.81l-1.3 1.39-12 .16a3 3 0 013.26-2.31l1.47.18a6.32 6.32 0 004.44-2.15zm25-1l-1.3 1.39-12 .16a3 3 0 013.26-2.31l1.47.18a6.32 6.32 0 004.44-2.15z"/><path d="M13.33 16h.15a4.4 4.4 0 014.4 4.4v9.46h-9v-9.45A4.4 4.4 0 0113.33 16z" transform="rotate(-180 13.4 22.94)"/><path class="cls-1" d="M3.89 13c-1.39-2.26-1-6.15 1.52-8.68a7.75 7.75 0 019.12-1.45l.5.26a7.74 7.74 0 013.94 5l1.45 7 3.1 1-.89 8.69-2.94-2.61-4.66-4-3 1.5a3.84 3.84 0 01-5.21-1.37L6 16.8z"/><path d="M2.83 10.67h-.32A8.64 8.64 0 018.44.36a8.63 8.63 0 0111 6.8 37.09 37.09 0 01.65 6.24l-5.82-5-.49.28a17.08 17.08 0 01-10.95 1.99z"/><path d="M9.52 16.45a1.69 1.69 0 102.91-1.72" fill="#fff"/><path d="M12.67 36.38l1-10.68a4.42 4.42 0 011.13-2.26l2.83-3 2.08 1.79 3.83-6.08L31 13.4s12.41 17.17 14 27.3l.41 2.62-17.17 3.13-5.93-9.88-3.06-2.72-1.18 7.41a4.22 4.22 0 01-4.27 3.55 4.22 4.22 0 01-3.68-2.39l-7.2-15L7 25.6z" fill="#ffcc38"/><path class="cls-4" d="M51.46 93.54L40 57.27s-10.14-6.37-11.49-10l-.3-.8 17.17-3.13 2.31 4.08a16.25 16.25 0 012.92 8.78L51 67.83l1.74 4.41A64.22 64.22 0 0156 87.81l.37 5.73z"/><path class="cls-4" d="M31.67 91.47l-.25 2.07h-5.36l-2.33-21.42a8.17 8.17 0 01.43-4l4.08-21.69 7.52-1.37L40 57.27l-9 14.07s1.59 13.12.67 20.13z"/><path class="cls-1" d="M13.81 10.9a1.94 1.94 0 10.68-2.66 2 2 0 00-.68 2.66z"/><path fill="#ffd01f" d="M33.86 24.51l2.88 15.81-11.51 14.47-3.6-2.37L28 37.95l.1-17.25 5.76 3.81z"/><path class="cls-1" d="M2.92 27.47a5.56 5.56 0 01-2-1.8l-.74-1.08a2 2 0 01.47-2.3l1.94-1.79-1.47-2.84a.78.78 0 01.44-1.09.77.77 0 01.86.26L4.86 20l.23.25a6.86 6.86 0 011.15 1.68 7 7 0 01.67 2.45L7 25.6zM17 58.74a.82.82 0 01-.3-1.11l1.76-3.11 2-.22-2.35 4.13a.82.82 0 01-1.11.31z"/><path class="cls-1" d="M18 60.22a.82.82 0 01-.31-1.1l2.68-4.82 1.42.8-2.67 4.81a.83.83 0 01-1.12.31z"/><path class="cls-1" d="M19.78 60.34a.81.81 0 01-.3-1.11l2.35-4.13 1.41.8-2.35 4.1a.81.81 0 01-1.11.34z"/><path class="cls-1" d="M22.31 59.19a.81.81 0 01-.3-1.11l1.23-2.18 1.42.81-1.24 2.18a.81.81 0 01-1.11.3z"/><path class="cls-1" d="M24.19 57.54l.79-1.4.16-1.54-3.71-2.22h-.09a4.85 4.85 0 00-3.12 2.46h-.11z"/></g></g></svg>