<svg xmlns="http://www.w3.org/2000/svg" viewBox="0 0 75.32 122.55"><defs><style>.cls-2{fill:#ff63be}</style></defs><g id="Слой_2" data-name="Слой 2"><g id="Isolation_Mode" data-name="Isolation Mode"><path d="M53.35 119l.86 3.51-10-.37a2.61 2.61 0 013-1.83l1.27.24a1.25 1.25 0 001.23-1.69zm12.82-44.78l-.85 3.51 10-.39a2.59 2.59 0 00-3-1.82l-1.27.24a1.25 1.25 0 01-1.23-1.69z"/><path d="M55.69 48.48l-13.45 7.67-6.68 3.63-.62.64-.88.06-6.65 7.07 7.75 22.54a6.52 6.52 0 00.35.82l14.19 28 3.65.14s.3-4.57-2.89-13.74a104.77 104.77 0 00-7.6-16.68l-3-17.81 12.79-11.35s0-2.82 5 5.48 7.75 11 7.75 11L68.66 74 56.1 49.26a7.22 7.22 0 00-.41-.78z" fill="#ffcc38"/><path class="cls-2" d="M56.47 6.1L51.19 11l1.08 1.17 5.28-4.91a.8.8 0 00-1.08-1.16z"/><path class="cls-2" d="M49.55 10.23l.3-.63a13.82 13.82 0 004.28-8.25v-.24a1.28 1.28 0 011.66-1 1.29 1.29 0 01.89 1.19 13.78 13.78 0 01-3.33 9.32l-2.47 2.87zM6.21 76.29L9.63 70l1.41.76-3.43 6.29a.79.79 0 01-1.08.32.8.8 0 01-.32-1.08z"/><path class="cls-2" d="M8.47 68.56l-.54.44A13.81 13.81 0 011 75.22l-.22.09a1.28 1.28 0 00-.6 1.87 1.27 1.27 0 001.37.56 13.78 13.78 0 008.19-5.55l2.16-3.12z"/><path d="M49.72 9.62L25.56 32.39l-13.11 9.88-4.53 26.61 3.21 1.6 5.39-22.37L27 67.76l18.89-12.9-11.14-21.29L52 12.23z" fill="#00d7ff"/><path class="cls-2" d="M25.75 15.41c-1.23-2.73-5.11-4.76-9-4.05a8.67 8.67 0 00-7.08 7.55l-.07.62a8.66 8.66 0 002.18 6.81L17.23 32l1.43 3.34 5.11 1.53 1.79-4.51-1.84-3.92 3-1.31a4.3 4.3 0 002-5.7l-1.35-2.86z"/><path d="M26.19 53.38a2.82 2.82 0 001.34-3.77l-13-27.18L25 13.61a6.18 6.18 0 00-1.15-1.47 9.17 9.17 0 00-12.54-.48 9.52 9.52 0 00-2.52 11.45L22.42 52a2.82 2.82 0 003.77 1.38z"/><path d="M25.31 22.74a1.9 1.9 0 11-3.43 1.62" fill="#fff"/><path class="cls-2" d="M17.69 23a2.24 2.24 0 11-3-1.07 2.24 2.24 0 013 1.07z"/></g></g></svg>