<svg xmlns="http://www.w3.org/2000/svg" viewBox="0 0 64.46 91.06"><defs><style>.cls-1{fill:#ffd01f}.cls-3{fill:#ff63be}</style></defs><g id="Слой_2" data-name="Слой 2"><g id="Isolation_Mode" data-name="Isolation Mode"><path class="cls-1" d="M21.91 62.35v16.08a1.94 1.94 0 001.55 1.93 1.86 1.86 0 002.17-1.83v-4.64A1.88 1.88 0 0127.51 72c.87 0 1.83.61 1.83 1.42V89.1a1.91 1.91 0 001.54 1.9 1.85 1.85 0 002.17-1.83V77.06a1.87 1.87 0 012-1.89 1.87 1.87 0 011.78 1.87v3.68a1.92 1.92 0 001.55 1.93 1.86 1.86 0 002.17-1.83V59.16z"/><path d="M22.4 15.89h18.74L46.2 5.12A3.59 3.59 0 0042.59 0a3.62 3.62 0 00-1.66.6l-9.16 6.27L22.61.62A3.66 3.66 0 0021 0a3.59 3.59 0 00-3.61 5.1z" fill="#00d7ff"/><path class="cls-3" d="M1.37 66.38L6.2 61.1 5 60 .21 65.31a.79.79 0 101.16 1.07z"/><path class="cls-3" d="M7.88 61.73l-.24.66a13.59 13.59 0 00-3.56 8.5v.24a1.26 1.26 0 01-1.57 1.17 1.28 1.28 0 01-1-1.1 13.72 13.72 0 012.53-9.49l2.21-3zm55.21 4.65l-4.82-5.28 1.16-1.1 4.83 5.28a.79.79 0 01-1.17 1.07z"/><path class="cls-3" d="M56.58 61.73l.25.66a13.63 13.63 0 013.55 8.5v.24A1.26 1.26 0 0062 72.3a1.28 1.28 0 001-1.1 13.67 13.67 0 00-2.53-9.49l-2.21-3z"/><path d="M59.2 60L43.12 38.29l-2-22.4-1.29-.38a28.54 28.54 0 00-15.92-.06l-1.53.44-1.21 22.6L5.27 60l2.49 2.4 12.15-12.8a17 17 0 0112.3-5.29 17 17 0 0112.33 5.25L56.7 62.24z"/><path class="cls-3" d="M21.38 59.29c-.05 2.89 2.52 6.28 6.23 7.27a8.41 8.41 0 009.32-3.69l.32-.52a8.4 8.4 0 00.9-6.86l-2.45-6.07v-4.31l-3.45-2.62-3.52 2.62-.08 4.64h-3.27a4.17 4.17 0 00-4.11 4.17v1.94z"/><path d="M24.79 54.22a1.84 1.84 0 113.67 0" fill="#fff"/><path class="cls-1" d="M33.37 58.49L21 61.12a6.5 6.5 0 00.47 1.88 9.44 9.44 0 0011.47 6 10 10 0 007.54-9.34c0-4.14-3.8-7.76-3.8-7.76z"/><path class="cls-3" d="M31.88 57a2.1 2.1 0 112.1 2.1 2.1 2.1 0 01-2.1-2.1z"/></g></g></svg>