<svg xmlns="http://www.w3.org/2000/svg" viewBox="0 0 52.72 69.89"><defs><style>.cls-1{fill:#ff63be}.cls-2{fill:#fff}</style></defs><g id="Слой_2" data-name="Слой 2"><g id="Isolation_Mode" data-name="Isolation Mode"><path d="M41.81 31.64c-1.41-4.62-3.45-6.57-7.23-6.81-1.68-.1-15.71-.1-17.38 0-3.79.24-5.54 2.61-7 7.3L7 45.06a5 5 0 001.21 4l4.32 4.81 2-17 3.71 20.3h16.67l2.76-20.3 2.72 16.9L44.6 49a4.94 4.94 0 001.18-4z"/><path class="cls-1" d="M14.77 10.23c0-3 2.58-6.43 6.38-7.45a8.61 8.61 0 019.55 3.78l.33.53a8.6 8.6 0 01.92 7l-2.51 6.22v4.42l-3.53 2.68-3.61-2.68-.1-4.73h-3.33a4.27 4.27 0 01-4.21-4.27v-2z"/><path class="cls-2" d="M18.27 15.42a1.88 1.88 0 003.76 0"/><path d="M31.86 29s4-5.13 1.42-16A9.78 9.78 0 0027.36.54l-.75-.22a9.67 9.67 0 00-11.75 6.1 6.67 6.67 0 00-.44 1.93l6.19 4.5a3.35 3.35 0 004.54-.55l1.26-1.49L30 27.64A2.12 2.12 0 0031.86 29z" fill="#00d7ff"/><path class="cls-1" d="M25.53 12.54a2.15 2.15 0 102.15-2.15 2.15 2.15 0 00-2.15 2.15zM52 57.12a4.88 4.88 0 00-5.44-2l-9.39 2.51H15.58l-9.39-2.49a4.93 4.93 0 00-5.43 2.1 5.13 5.13 0 002.29 7.38l16.76 5.27h17.74l12.12-5.33A5.21 5.21 0 0052 57.12z"/><path d="M31.86 68.26l1.25 1.39 12 .16a3 3 0 00-3.26-2.31l-1.47.18A6.32 6.32 0 0136 65.53zm-18.46-.7a5.41 5.41 0 01-1.08.12l-1.47-.18a3 3 0 00-3.26 2.31l12.22-.14z"/><path class="cls-2" d="M37.74 63.13H15a2.22 2.22 0 01-2.2-2l-1.53-14.2a2.22 2.22 0 012.2-2.44h25.78a2.22 2.22 0 012.2 2.45l-1.51 14.21a2.21 2.21 0 01-2.2 1.98z"/><path d="M28.3 53.81a1.94 1.94 0 11-1.94-1.94 1.94 1.94 0 011.94 1.94z" fill="#ffd01f"/><path d="M29.32 24.81h4.81V31h-4.81z"/></g></g></svg>