<svg xmlns="http://www.w3.org/2000/svg" viewBox="0 0 508.86 385.98"><defs><style>.cls-2{fill:#f2f2f2}.cls-3{fill:#ff63be}.cls-4{fill:#fff}.cls-5{fill:#ffcc38}.cls-6{fill:#00d7ff}.cls-7{fill:#ffd01f}</style></defs><g style="isolation:isolate"><g id="Слой_2" data-name="Слой 2"><g id="Layer_1" data-name="Layer 1"><path class="cls-2" d="M28.62 95.22H65.1a52.63 52.63 0 0112.33 1.36 25.21 25.21 0 019.76 4.54 20.88 20.88 0 016.36 8.48 33.12 33.12 0 012.27 13 27 27 0 01-4.08 15 20.6 20.6 0 01-12.26 8.56v.3a21.41 21.41 0 0114.37 7.72q5.3 6.51 5.3 17.4a43.31 43.31 0 01-1.66 12.11 24.8 24.8 0 01-5.68 10.07 28.4 28.4 0 01-10.44 6.88q-6.44 2.58-16 2.58H28.62zm28 44.35q9.09 0 13.24-3.26t4.17-11q0-7.73-3.79-10.9t-11.95-3.18h-7.87v28.31zm2.27 47.67c5.25 0 9.48-1.16 12.72-3.48s4.84-6.61 4.84-12.86a20.44 20.44 0 00-1.29-7.8 13.07 13.07 0 00-3.48-5 12.44 12.44 0 00-5.22-2.65 27.2 27.2 0 00-6.66-.76h-9.38v32.54z"/><path d="M112.76 217.44l-1.25 1.39-12 .16a3 3 0 013.25-2.31l1.47.18a6.3 6.3 0 004.44-2.15zm25-1l-1.25 1.39-12 .16a3 3 0 013.25-2.31l1.47.18a6.3 6.3 0 004.44-2.15z"/><path d="M94.14 138.64h.15a4.4 4.4 0 014.4 4.4v9.46h-9V143a4.4 4.4 0 014.45-4.36z" transform="rotate(-180 94.215 145.57)"/><path class="cls-3" d="M84.71 135.61c-1.4-2.26-1-6.15 1.52-8.68a7.75 7.75 0 019.12-1.45l.5.26a7.73 7.73 0 013.93 5l1.45 7 3.1 1-.88 8.69-2.94-2.61-4.67-4-3 1.5a3.83 3.83 0 01-5.16-1.32l-.89-1.51z"/><path d="M83.64 133.3h-.31a8.63 8.63 0 015.92-10.3 8.64 8.64 0 0111 6.8 37.17 37.17 0 01.64 6.24l-5.81-5-.49.28a17.11 17.11 0 01-10.95 1.98z"/><path class="cls-4" d="M90.34 139.08a1.69 1.69 0 102.91-1.72"/><path class="cls-5" d="M93.48 159l1-10.68a4.43 4.43 0 011.14-2.26l2.82-3 2.09 1.79 3.82-6.08 7.45-2.75s12.45 17.17 14 27.3l.41 2.62-17.18 3.13-5.93-9.88-3.05-2.72-1.19 7.41a4.21 4.21 0 01-4.27 3.55 4.22 4.22 0 01-3.67-2.39l-7.21-15 4.1-1.87z"/><path class="cls-6" d="M132.27 216.17l-11.43-36.27s-10.13-6.37-11.49-10l-.3-.8 17.18-3.1 2.3 4.08a16.26 16.26 0 012.93 8.78l.38 11.65 1.73 4.41a64.71 64.71 0 013.25 15.57l.37 5.73z"/><path class="cls-6" d="M112.49 214.1l-.25 2.07h-5.37l-2.33-21.42a8.3 8.3 0 01.44-4l4.07-21.69 7.53-1.37 4.26 12.19-9 14.07s1.56 13.14.65 20.15z"/><path class="cls-3" d="M94.63 133.53a1.94 1.94 0 10.68-2.66 1.94 1.94 0 00-.68 2.66z"/><path class="cls-7" d="M114.67 147.14l2.88 15.81-11.5 14.47-3.6-2.37 6.37-14.47.1-17.25 5.75 3.81z"/><path class="cls-3" d="M83.73 150.1a5.53 5.53 0 01-2-1.8l-.73-1.08a2 2 0 01.46-2.3l2-1.79-1.47-2.84a.78.78 0 01.43-1.09.77.77 0 01.86.26l2.45 3.13.23.25a6.83 6.83 0 011.14 1.68 7 7 0 01.67 2.45l.11 1.26zm14.04 31.27a.82.82 0 01-.31-1.11l1.77-3.11 2-.22-2.35 4.13a.82.82 0 01-1.11.31zm1.09 1.48a.81.81 0 01-.31-1.1l2.68-4.82 1.41.8-2.64 4.81a.82.82 0 01-1.14.31z"/><path class="cls-3" d="M100.6 183a.82.82 0 01-.31-1.11l2.35-4.13 1.42.8-2.35 4.14a.81.81 0 01-1.11.3z"/><path class="cls-3" d="M103.13 181.82a.82.82 0 01-.31-1.11l1.24-2.18 1.41.81-1.23 2.18a.82.82 0 01-1.11.3z"/><path class="cls-3" d="M105 180.17l.8-1.4.15-1.54-3.7-2.22h-.09a4.85 4.85 0 00-3.16 2.48l-.12-.05z"/><path class="cls-2" d="M150.31 205q-12.26 0-19.53-4a27.1 27.1 0 01-11.12-11.35 49.1 49.1 0 01-5-17.56 206.68 206.68 0 01-1.14-22.78 207.71 207.71 0 011.14-22.62 50.14 50.14 0 015-17.79 28 28 0 0111.12-11.58q7.28-4.16 19.53-4.16t19.52 4.16A28 28 0 01181 108.84a50.14 50.14 0 015 17.79 207.71 207.71 0 011.14 22.62A206.68 206.68 0 01186 172a49.1 49.1 0 01-5 17.56 27.12 27.12 0 01-11.13 11.35q-7.3 4.04-19.56 4.09zm0-15.59a12.74 12.74 0 007.79-2.19 13.78 13.78 0 004.54-7 51.17 51.17 0 002.12-12.41q.54-7.64.53-18.54t-.53-18.46a52.17 52.17 0 00-2.12-12.41 13.79 13.79 0 00-4.54-7 14.91 14.91 0 00-15.59 0 13.85 13.85 0 00-4.54 7 52.68 52.68 0 00-2.12 12.41q-.53 7.56-.53 18.46t.53 18.54A51.66 51.66 0 00138 180.2a13.85 13.85 0 004.54 7 12.79 12.79 0 007.77 2.16zM203 95.22h21.79v43.29h.31l27.54-43.29h23.61l-29.36 46.31 32.69 61.76H255l-22.2-44.35-8 12.26v32.09H203zm84.28 0h38.14a31.41 31.41 0 0114 2.8 25.5 25.5 0 019.16 7.34 28.79 28.79 0 015 10.37 47 47 0 011.52 11.88 38.76 38.76 0 01-2.5 14.61 26.59 26.59 0 01-7 10.06 29.26 29.26 0 01-10.82 5.9 47.53 47.53 0 01-14.08 2h-11.62v43.14h-21.8zm31.48 48.89a14.35 14.35 0 0010.52-3.94q4-3.93 4-12.26 0-8.18-3.48-12.41t-11.65-4.24h-9.08v32.85zm62.66 59.78h-2.27c-.6 0-1.24 0-1.89-.07s-1.41-.11-2.27-.16-2-.17-3.41-.37v-16.5a45.34 45.34 0 006.36.45q5.3 0 7.72-2.72a28.4 28.4 0 004.54-7.72l1.06-2.42-29.67-79.16h24.22l15.89 53.12L417 95.22h22.7L413.81 173a133.78 133.78 0 01-5.37 14.31 35 35 0 01-6.13 9.53 20.12 20.12 0 01-8.48 5.38 39.73 39.73 0 01-12.41 1.67zm69.77-108.67h57.67v17.86H473v90.21h-21.8z"/><path d="M183.63 222.47H26.92a3.65 3.65 0 01-3.65-3.65 3.64 3.64 0 013.65-3.65h156.71a3.65 3.65 0 013.65 3.65 3.66 3.66 0 01-3.65 3.65zm296 1H255.92a3.65 3.65 0 01-3.65-3.65 3.64 3.64 0 013.65-3.65h223.71a3.65 3.65 0 013.65 3.65 3.66 3.66 0 01-3.65 3.65zm-252.43-1h-23.72a3.66 3.66 0 01-3.65-3.65 3.65 3.65 0 013.65-3.65h23.72a3.65 3.65 0 013.65 3.65 3.66 3.66 0 01-3.65 3.65z"/><path class="cls-6" d="M436.43 144.76a5.55 5.55 0 01-.74 3.11 11.07 11.07 0 01-2.66 2.39 4.75 4.75 0 00-1.57 1.55 3.93 3.93 0 00-.57 2.12 2.86 2.86 0 00.67 2 2.43 2.43 0 001.9.74 2.35 2.35 0 001.66-.61 2.41 2.41 0 00.7-1.81h4.89v.08a5.38 5.38 0 01-2 4.65 8.42 8.42 0 01-5.31 1.55 8.15 8.15 0 01-5.57-1.78 6.11 6.11 0 01-2-4.82 5.79 5.79 0 011.11-3.42 7.94 7.94 0 012.82-2.45 3.36 3.36 0 001.28-1.34 4.6 4.6 0 00.34-2zm-5-6.18h5v4h-5z"/><path class="cls-3" d="M100.72 83.72a5.78 5.78 0 01.78-3.26 11.59 11.59 0 012.79-2.46 5.11 5.11 0 001.65-1.62 4.17 4.17 0 00.6-2.24 3 3 0 00-.7-2.09 2.56 2.56 0 00-2-.78 2.53 2.53 0 00-1.75.64 2.57 2.57 0 00-.73 1.91h-5.13v-.1a5.65 5.65 0 012.07-4.87 8.88 8.88 0 015.58-1.63 8.55 8.55 0 015.81 1.78 6.38 6.38 0 012.13 5 6 6 0 01-1.17 3.59 8.15 8.15 0 01-3 2.58 3.57 3.57 0 00-1.35 1.41 4.88 4.88 0 00-.35 2zm5.26 6.5h-5.24V86H106z"/><path class="cls-3" d="M100.72 83.72a5.78 5.78 0 01.78-3.26 11.59 11.59 0 012.79-2.46 5.11 5.11 0 001.65-1.62 4.17 4.17 0 00.6-2.24 3 3 0 00-.7-2.09 2.56 2.56 0 00-2-.78 2.53 2.53 0 00-1.75.64 2.57 2.57 0 00-.73 1.91h-5.13v-.1a5.65 5.65 0 012.07-4.87 8.88 8.88 0 015.58-1.63 8.55 8.55 0 015.81 1.78 6.38 6.38 0 012.13 5 6 6 0 01-1.17 3.59 8.15 8.15 0 01-3 2.58 3.57 3.57 0 00-1.35 1.41 4.88 4.88 0 00-.35 2zm5.26 6.5h-5.24V86H106zm135.88-9.6a5.73 5.73 0 01.78-3.26 11.48 11.48 0 012.8-2.52 5 5 0 001.64-1.62 4.16 4.16 0 00.6-2.23 3 3 0 00-.7-2.09 2.55 2.55 0 00-2-.78 2.46 2.46 0 00-1.74.64 2.52 2.52 0 00-.74 1.9h-5.13v-.09a5.66 5.66 0 012.06-4.88 8.88 8.88 0 015.57-1.63 8.55 8.55 0 015.85 1.87A6.4 6.4 0 01253 71a6.1 6.1 0 01-1.16 3.59 8.25 8.25 0 01-3 2.57 3.52 3.52 0 00-1.35 1.42 4.82 4.82 0 00-.35 2.05zm5.26 6.49h-5.24V82.9h5.24z"/><path class="cls-3" d="M241.86 80.62a5.73 5.73 0 01.78-3.26 11.48 11.48 0 012.8-2.52 5 5 0 001.64-1.62 4.16 4.16 0 00.6-2.23 3 3 0 00-.7-2.09 2.55 2.55 0 00-2-.78 2.46 2.46 0 00-1.74.64 2.52 2.52 0 00-.74 1.9h-5.13v-.09a5.66 5.66 0 012.06-4.88 8.88 8.88 0 015.57-1.63 8.55 8.55 0 015.85 1.87A6.4 6.4 0 01253 71a6.1 6.1 0 01-1.16 3.59 8.25 8.25 0 01-3 2.57 3.52 3.52 0 00-1.35 1.42 4.82 4.82 0 00-.35 2.05zm5.26 6.49h-5.24V82.9h5.24zM194.88 188a9.79 9.79 0 01-10 10.06h-8.3a10.2 10.2 0 110-20.4h5.25l5.59-2.06v2.88c5.47 1.4 7.46 4.98 7.46 9.52z"/><path d="M10.54 176.84H6.16v-12.13h4.38zm0 6.66H6.16v-3.65h4.38z"/><path class="cls-6" d="M318 161.15h-4.37V149H318zm0 6.66h-4.37v-3.65H318z"/><path d="M358.56 181.9c-1.42-4.62-3.46-6.58-7.24-6.81-1.68-.11-15.71-.11-17.38 0-3.79.23-5.54 2.61-7 7.29l-3.19 12.93a4.91 4.91 0 001.2 4l4.32 4.82 2-17 3.71 20.3h16.63l2.76-20.3 2.77 16.87 4.2-4.78a4.92 4.92 0 001.18-4z"/><path class="cls-3" d="M331.51 160.48c-.05-3 2.58-6.43 6.38-7.44a8.6 8.6 0 019.55 3.78l.33.53a8.6 8.6 0 01.92 7l-2.51 6.21v4.43l-3.53 2.68L339 175l-.08-4.76h-3.33a4.26 4.26 0 01-4.19-4.24v-2z"/><path class="cls-4" d="M335 165.68a1.88 1.88 0 003.76 0"/><path class="cls-6" d="M346.57 169.63l2.62-4.52a9.67 9.67 0 00.83-1.82 9.77 9.77 0 00-5.93-12.45 6.29 6.29 0 00-.74-.22 9.68 9.68 0 00-11.76 6.1 6.67 6.67 0 00-.44 1.93l6.19 4.5a3.35 3.35 0 004.54-.55l1.26-1.5z"/><path class="cls-3" d="M342.27 162.8a2.15 2.15 0 102.15-2.16 2.15 2.15 0 00-2.15 2.16zm26.44 44.58a4.9 4.9 0 00-5.44-2l-9.39 2.52h-21.56l-9.39-2.52a5 5 0 00-5.43 2.11 5.13 5.13 0 002.29 7.38l16.76 5.27h17.74l12.12-5.33a5.21 5.21 0 002.3-7.43z"/><path d="M348.6 218.52l1.25 1.39 12 .16a3 3 0 00-3.25-2.31l-1.48.18a6.32 6.32 0 01-4.44-2.15zm-18.46-.71a4.7 4.7 0 01-1.08.13l-1.47-.18a3 3 0 00-3.25 2.31l12.21-.14z"/><path class="cls-4" d="M354.48 213.39h-22.79a2.22 2.22 0 01-2.2-2l-1.49-14.2a2.22 2.22 0 012.2-2.44H356a2.22 2.22 0 012.2 2.45l-1.51 14.21a2.22 2.22 0 01-2.21 1.98z"/><path class="cls-7" d="M345 204.07a1.94 1.94 0 11-1.94-1.94 1.94 1.94 0 011.94 1.94z"/><path d="M330.73 159.25c0-.53.13-2.07.16-2.91.37-4.48 5.22-8.08 10.26-8a10.42 10.42 0 019.47 7 9.46 9.46 0 01.56 2.73l-.05 1.06-25.91 1.48-.06-1.06z"/><path class="cls-7" d="M29.07 29.3A10.37 10.37 0 0018.64 19h-8.3a10.2 10.2 0 100 20.4h5.25l6.53 2.5v-2.85a10.2 10.2 0 006.95-9.75zM385.8 10.06A9.79 9.79 0 01395.77 0h8.3a10.2 10.2 0 110 20.4h-5.26l-5.58 2.05v-2.87c-5.44-1.38-7.43-4.96-7.43-9.52z"/><path d="M416.33 139.46l.86 3.51-10-.37a2.61 2.61 0 013-1.82l1.28.24a1.25 1.25 0 001.22-1.69zm12.83-44.82l-.86 3.51 10-.39a2.61 2.61 0 00-3-1.82l-1.27.25a1.26 1.26 0 01-1.23-1.69z"/><path class="cls-5" d="M418.67 68.9l-13.45 7.68-6.68 3.62-.62.64-.88.07L390.4 88l7.75 22.54a5.77 5.77 0 00.34.81l14.19 28 3.65.13s.31-4.56-2.89-13.74a105.29 105.29 0 00-7.6-16.68l-3-17.8 12.8-11.36s0-2.82 5 5.48 7.76 11 7.76 11l3.22-1.9-12.54-24.8a8.3 8.3 0 00-.41-.78z"/><path class="cls-3" d="M419.45 26.53l-5.28 4.91 1.09 1.16 5.28-4.9a.8.8 0 10-1.09-1.17z"/><path class="cls-3" d="M412.53 30.66l.3-.64a13.76 13.76 0 004.28-8.25v-.23a1.28 1.28 0 011.66-1.05 1.27 1.27 0 01.89 1.19 13.74 13.74 0 01-3.3 9.32l-2.47 2.88zm-43.34 66.06l3.43-6.34 1.4.76-3.42 6.34a.8.8 0 01-1.41-.76z"/><path class="cls-3" d="M371.45 89l-.54.45a13.81 13.81 0 01-6.91 6.2l-.22.09a1.28 1.28 0 00-.6 1.87 1.29 1.29 0 001.38.56 13.82 13.82 0 008.18-5.56l2.16-3.11z"/><path class="cls-6" d="M412.71 30.05l-24.17 22.76-13.1 9.88-4.53 26.62 3.2 1.59 5.39-22.37 10.44 19.66 18.89-12.91L397.74 54 415 32.66z"/><path class="cls-3" d="M388.73 35.83c-1.22-2.72-5.11-4.75-9-4a8.69 8.69 0 00-7.08 7.55l-.07.63a8.66 8.66 0 002.18 6.81l5.48 5.68 1.42 3.34 5.11 1.53 1.79-4.51-1.86-3.96 3-1.31a4.3 4.3 0 002-5.71L390.35 39z"/><path d="M389.17 73.81a2.82 2.82 0 001.34-3.81l-13-27.17L388 34a6.62 6.62 0 00-1.16-1.48 9.15 9.15 0 00-12.53-.47 9.51 9.51 0 00-2.56 11.45c.16.32 9.65 20.45 13.64 28.92a2.83 2.83 0 003.78 1.39z"/><path class="cls-4" d="M388.29 43.17a1.9 1.9 0 01-3.43 1.62"/><path class="cls-3" d="M380.67 43.43a2.24 2.24 0 11-3-1.07 2.25 2.25 0 013 1.07zM23.32 121.55l1.9 3.86H13.29a2.9 2.9 0 013.24-2.15l1.43.22a1.39 1.39 0 001.29-1.93h4.07z"/><path class="cls-3" d="M13.25 121.55l1.89 3.86H3.21a2.91 2.91 0 013.25-2.15l1.43.22a1.39 1.39 0 001.29-1.93h4.07z"/><path d="M14.51 121.9l10.55-27.14 12.11-6.13 13.74 7.42 3.85-5.9-15 1.66-20.09-4.55a5 5 0 00-3.14 3.85L7.45 121.9z"/><path d="M27 87.91a5 5 0 00-2.67 4l-6.91 30h6.59l9.71-25.6s12.29 3 20.72 3a8.18 8.18 0 007.77-7.77v-1.39z"/><path class="cls-6" d="M42.22 70.05l-.54 19.31 20.57 2.45v-3.63l9.41-4.28a4 4 0 001.69-5.9L64 64a9.09 9.09 0 00-7.9-4.6H45.3a7.45 7.45 0 00-6.74 4.26l-8.49 17.79L33.7 87zm20 11.4v-7.39l3.07 4.11a1.44 1.44 0 01-.58 2.18z"/><path class="cls-3" d="M40.7 44c-.05-3 2.57-6.41 6.35-7.42a8.57 8.57 0 019.51 3.76l.33.53a8.6 8.6 0 01.92 7l-2.5 7.38v4.15l-3.67 1.75-3.47-1.75-.06-4.49h-3.33a4.25 4.25 0 01-4.19-4.25v-3.22z"/><path class="cls-4" d="M44.18 50.32a1.88 1.88 0 003.75 0"/><path class="cls-3" d="M49.41 88a.9.9 0 01.39-1.22l3.5-1.82 2.34 1.15-5 2.27a.91.91 0 01-1.23-.38z"/><path class="cls-3" d="M49.54 90a.9.9 0 01.37-1.21l5.39-2.88.84 1.6-5.38 2.87a.89.89 0 01-1.22-.38z"/><path class="cls-3" d="M51.08 91.17a.91.91 0 01.38-1.17l4.68-2.44.83 1.6-4.67 2.39a.91.91 0 01-1.22-.38z"/><path class="cls-3" d="M54.13 91.61a.91.91 0 01.38-1.22L57 89.11l.83 1.6L55.34 92a.9.9 0 01-1.21-.39z"/><path class="cls-3" d="M56.87 91.2l1.13-.6a2.38 2.38 0 00.73-.61l.76-.95-2.11-4.3h-.1a5.39 5.39 0 00-4.38.41z"/><path class="cls-7" d="M52.12 33.85a9.39 9.39 0 00-11.41 5.92 6.48 6.48 0 00-.43 1.87l3.66.24 1.32-2.37.58 2.49 6.37.45 2.19 15.91a42.94 42.94 0 005.6-.84c5-6 2-23-7.88-23.67z"/><path class="cls-3" d="M52.26 47.44A1.72 1.72 0 1054 45.73a1.72 1.72 0 00-1.74 1.71z"/><path class="cls-7" d="M52.19 39.17v11.45A9.51 9.51 0 0053.54 44a16.82 16.82 0 00-1.35-4.83z"/><path class="cls-4" d="M16.26 89.8h25a2.51 2.51 0 00-2.51-2.51H16.26z"/><path class="cls-2" d="M11.3 89.68h21.94a2.05 2.05 0 002-2.48l-3-14.09a2 2 0 00-2-1.62H8.28a2.05 2.05 0 00-2 2.48l3 14.09a2 2 0 002.02 1.62z"/><path d="M18.87 80.58a1.89 1.89 0 101.89-1.89 1.89 1.89 0 00-1.89 1.89z" fill="#606060"/><path class="cls-7" d="M204.05 150.8v16.08a1.91 1.91 0 001.55 1.93 1.86 1.86 0 002.17-1.83v-4.64a1.88 1.88 0 011.88-1.85c.87 0 1.83.6 1.83 1.41v15.66a1.93 1.93 0 001.54 1.93 1.86 1.86 0 002.17-1.83v-12.11a1.87 1.87 0 012-1.9 1.87 1.87 0 011.79 1.88v3.67a1.91 1.91 0 001.55 1.93 1.85 1.85 0 002.16-1.83v-21.69z"/><path class="cls-6" d="M204.54 104.34h18.74l5.06-10.77a3.59 3.59 0 00-3.61-5.1 3.52 3.52 0 00-1.66.61l-9.16 6.24-9.16-6.24a3.6 3.6 0 00-1.66-.61 3.59 3.59 0 00-3.61 5.1z"/><path class="cls-3" d="M183.51 154.83l4.83-5.28-1.17-1.07-4.82 5.28a.79.79 0 101.16 1.07z"/><path class="cls-3" d="M190 150.19l-.24.65a13.61 13.61 0 00-3.56 8.5v.24a1.26 1.26 0 01-1.55 1.17 1.27 1.27 0 01-1-1.1 13.63 13.63 0 012.53-9.48l2.21-3zm55.23 4.64l-4.82-5.28 1.16-1.07 4.82 5.28a.79.79 0 11-1.16 1.07z"/><path class="cls-3" d="M238.72 150.19l.24.65a13.61 13.61 0 013.56 8.5v.24a1.26 1.26 0 001.55 1.17 1.27 1.27 0 001-1.1 13.63 13.63 0 00-2.53-9.48l-2.21-3z"/><path d="M241.34 148.41l-16.08-21.67-2-22.4L222 104a28.63 28.63 0 00-15.92-.07l-1.53.44-1.22 22.63-15.93 21.41 2.5 2.39 12.15-12.75a17.06 17.06 0 0112.29-5.28 17 17 0 0112.34 5.23l12.16 12.68z"/><path class="cls-3" d="M203.52 147.75c-.05 2.89 2.52 6.27 6.23 7.26a8.42 8.42 0 009.32-3.68l.32-.52a8.43 8.43 0 00.9-6.87l-2.45-6.06v-4.32l-3.45-2.62-3.52 2.62-.08 4.65h-3.25a4.17 4.17 0 00-4.11 4.17v1.93z"/><path class="cls-4" d="M206.93 142.67a1.84 1.84 0 013.67 0"/><path class="cls-7" d="M215.51 146.94l-12.33 2.64a6.5 6.5 0 00.43 1.88 9.43 9.43 0 0011.47 5.95 9.94 9.94 0 007.53-9.33c0-4.14-3.79-7.76-3.79-7.76z"/><path class="cls-3" d="M214 145.49a2.1 2.1 0 112.1 2.1 2.1 2.1 0 01-2.1-2.1zm277.83-31.84h-4.38v-12.13h4.38zm0 6.66h-4.38v-3.65h4.38z"/><path class="cls-2" d="M73 368.47q-12.26 0-19.53-4a27.13 27.13 0 01-11.11-11.37 49 49 0 01-5-17.55 226.67 226.67 0 010-45.41 50 50 0 015-17.78 28 28 0 0111.12-11.58q7.27-4.15 19.53-4.16 11.65 0 18.39 3.78a25.73 25.73 0 0110.06 9.6 33.42 33.42 0 014.17 12.56 104.41 104.41 0 01.83 12.64h-21.8q0-11.81-2.8-17.18t-10.21-5.37a10.18 10.18 0 00-6.74 2.2Q62.27 277 60.75 282a60.43 60.43 0 00-2.12 12.86q-.6 7.95-.6 19.45a187.7 187.7 0 00.83 19.83 43.8 43.8 0 002.57 11.73c1.16 2.78 2.62 4.64 4.39 5.6a12.62 12.62 0 006.18 1.41 14.4 14.4 0 005.37-1 9 9 0 004.27-3.88 25.71 25.71 0 002.87-8.33 75.53 75.53 0 001.06-14.15h21.8a97 97 0 01-1.37 16.69 36.89 36.89 0 01-5.07 13.62 25.91 25.91 0 01-10.44 9.23q-6.73 3.41-17.49 3.41zm137-109.73h60.39v17.86h-38.61V302h36.32v17.86h-36.32v29.06h40.1v17.88H210zm93.67 17.86h-23.61v-17.86h69v17.86h-23.6v90.2h-21.79zm70.53-17.86h26.94l28.6 108.06H407l-5-22.85h-28.71l-5 22.85h-22.7zm24.06 67.35l-10.44-48.59h-.3l-10.45 48.59z"/><path d="M186.75 381.11l1.25 1.4 12 .16a3 3 0 00-3.25-2.31l-1.47.18a6.29 6.29 0 01-4.44-2.16zm-25-1l1.25 1.4 12 .16a3 3 0 00-3.25-2.31l-1.47.18a6.29 6.29 0 01-4.44-2.16z"/><path class="cls-6" d="M200.82 302.32h9v9.46a4.4 4.4 0 01-4.4 4.4h-.15a4.4 4.4 0 01-4.4-4.4v-9.46h-.05z"/><path class="cls-3" d="M214.8 299.29c1.4-2.27 1-6.15-1.52-8.68a7.75 7.75 0 00-9.12-1.45l-.5.26a7.77 7.77 0 00-3.94 5l-1.44 7-3.1 1 .88 8.69 2.94-2.61 4.67-4 3 1.5a3.84 3.84 0 005.21-1.37l.89-1.51z"/><path class="cls-6" d="M215.87 297l.31-.05a8.62 8.62 0 00-5.93-10.26 8.63 8.63 0 00-11 6.8 36.15 36.15 0 00-.64 6.24l5.81-5 .49.28a17.11 17.11 0 0010.96 1.99z"/><path class="cls-4" d="M209.17 302.76a1.69 1.69 0 11-2.91-1.72"/><path d="M206 322.69l-1-10.68a4.43 4.43 0 00-1.14-2.26l-2.82-3-2.04 1.79-3.82-6.08-7.45-2.75s-12.45 17.17-14 27.29l-.41 2.63 17.18 3.13 5.93-9.88 3.05-2.72 1.19 7.41a4.2 4.2 0 004.27 3.54 4.19 4.19 0 003.67-2.38l7.21-15-4.1-1.87z"/><path class="cls-7" d="M167.24 379.85l11.43-36.27s10.13-6.37 11.49-10l.3-.8-17.18-3.13-2.3 4.08a16.26 16.26 0 00-2.93 8.78l-.38 11.65-1.73 4.41a64.71 64.71 0 00-3.25 15.57l-.37 5.73z"/><path d="M187 377.78l.25 2.07h5.37l2.38-21.42a8.3 8.3 0 00-.44-4l-4.07-21.69-7.53-1.38-4.26 12.2 9 14.07s-1.59 13.14-.7 20.15z" fill="#ffb700"/><path class="cls-3" d="M204.88 297.21a1.94 1.94 0 11-.68-2.66 2 2 0 01.68 2.66z"/><path d="M184.84 310.82l-2.88 15.81 11.5 14.47 3.6-2.37-6.37-14.47-.1-17.25-5.75 3.81z"/><path class="cls-3" d="M215.78 313.78a5.62 5.62 0 002-1.8l.72-1.08a2 2 0 00-.46-2.3l-2-1.79 1.47-2.84a.78.78 0 00-.43-1.09.77.77 0 00-.86.26l-2.45 3.13-.23.25a6.83 6.83 0 00-1.14 1.68 7 7 0 00-.67 2.45l-.11 1.26zM201.74 345a.82.82 0 00.31-1.11l-1.77-3.1-2-.23 2.35 4.14a.81.81 0 001.11.3zm-1.09 1.53a.81.81 0 00.31-1.1l-2.68-4.83-1.41.81 2.67 4.81a.82.82 0 001.11.31z"/><path class="cls-3" d="M198.91 346.65a.82.82 0 00.31-1.11l-2.35-4.13-1.42.8 2.35 4.14a.81.81 0 001.11.3z"/><path class="cls-3" d="M196.38 345.5a.82.82 0 00.31-1.11l-1.24-2.18-1.45.79 1.23 2.17a.82.82 0 001.15.33z"/><path class="cls-3" d="M194.51 343.84l-.8-1.39-.15-1.54 3.7-2.22h.09a4.85 4.85 0 013.12 2.46l.12-.05z"/><path d="M101.74 386H48a3.64 3.64 0 01-3.64-3.65 3.64 3.64 0 013.64-3.66h53.72a3.65 3.65 0 013.65 3.64 3.65 3.65 0 01-3.63 3.67zm92.39 0h-70.71a3.64 3.64 0 01-3.65-3.65 3.64 3.64 0 013.65-3.64h70.71a3.64 3.64 0 013.65 3.64 3.64 3.64 0 01-3.65 3.65zm76.4 0h-58.72a3.65 3.65 0 01-3.65-3.65 3.65 3.65 0 013.65-3.64h58.72a3.64 3.64 0 013.64 3.64 3.64 3.64 0 01-3.64 3.65zm56.89 0h-39.71a3.64 3.64 0 01-3.65-3.65 3.64 3.64 0 013.65-3.64h39.71a3.64 3.64 0 013.65 3.64 3.64 3.64 0 01-3.65 3.65zm39.69 0H345.4a3.65 3.65 0 01-3.65-3.65 3.65 3.65 0 013.65-3.64h21.71a3.64 3.64 0 013.65 3.64 3.64 3.64 0 01-3.65 3.65zm63.89 0h-21.76a3.65 3.65 0 01-3.65-3.65 3.65 3.65 0 013.65-3.64H431a3.65 3.65 0 013.65 3.64A3.65 3.65 0 01431 386z"/><path class="cls-6" d="M251.3 304.83a5.46 5.46 0 01-.75 3.11 10.87 10.87 0 01-2.66 2.39 4.91 4.91 0 00-1.56 1.55 3.85 3.85 0 00-.58 2.12 2.91 2.91 0 00.67 2 2.45 2.45 0 001.9.74 2.37 2.37 0 001.67-.61 2.41 2.41 0 00.7-1.81h4.89v.09a5.39 5.39 0 01-2 4.64 8.45 8.45 0 01-5.32 1.55 8.13 8.13 0 01-5.56-1.78 6.09 6.09 0 01-2-4.82 5.76 5.76 0 011.11-3.41 7.93 7.93 0 012.81-2.46 3.32 3.32 0 001.29-1.34 4.78 4.78 0 00.33-2zm-5-6.18h5v4h-5zM38.91 285.89a5.38 5.38 0 01.74-3.11 10.87 10.87 0 012.66-2.39 5 5 0 001.57-1.55 3.93 3.93 0 00.57-2.12 2.86 2.86 0 00-.67-2 2.45 2.45 0 00-1.9-.74 2.37 2.37 0 00-1.67.61 2.44 2.44 0 00-.7 1.81h-4.89v-.09a5.4 5.4 0 012-4.64 8.47 8.47 0 015.32-1.55 8.11 8.11 0 015.56 1.78 6.06 6.06 0 012 4.82 5.82 5.82 0 01-1.1 3.41 7.87 7.87 0 01-2.82 2.46 3.39 3.39 0 00-1.29 1.34 4.78 4.78 0 00-.33 2zm5 6.18h-5v-4h5zM337 240a5.79 5.79 0 01.78-3.27 11.8 11.8 0 012.79-2.51 5 5 0 001.65-1.62 4.16 4.16 0 00.6-2.23 3 3 0 00-.7-2.09 2.55 2.55 0 00-2-.78 2.5 2.5 0 00-1.75.64 2.55 2.55 0 00-.73 1.9h-5.13v-.09a5.67 5.67 0 012.07-4.88 8.88 8.88 0 015.58-1.63 8.55 8.55 0 015.85 1.87 6.39 6.39 0 012.13 5.06 6.06 6.06 0 01-1.17 3.59 8.21 8.21 0 01-2.95 2.57 3.57 3.57 0 00-1.35 1.41 4.9 4.9 0 00-.35 2.06zm5.26 6.49H337v-4.19h5.24z"/><path class="cls-3" d="M337 240a5.79 5.79 0 01.78-3.27 11.8 11.8 0 012.79-2.51 5 5 0 001.65-1.62 4.16 4.16 0 00.6-2.23 3 3 0 00-.7-2.09 2.55 2.55 0 00-2-.78 2.5 2.5 0 00-1.75.64 2.55 2.55 0 00-.73 1.9h-5.13v-.09a5.67 5.67 0 012.07-4.88 8.88 8.88 0 015.58-1.63 8.55 8.55 0 015.85 1.87 6.39 6.39 0 012.13 5.06 6.06 6.06 0 01-1.17 3.59 8.21 8.21 0 01-2.95 2.57 3.57 3.57 0 00-1.35 1.41 4.9 4.9 0 00-.35 2.06zm5.26 6.49H337v-4.19h5.24z"/><path d="M94.44 378.12L92.55 382h11.93a2.91 2.91 0 00-3.25-2.16l-1.43.22a1.39 1.39 0 01-1.29-1.93h-4.07z"/><path d="M104.52 378.12l-1.9 3.87h11.93a2.9 2.9 0 00-3.24-2.16l-1.43.22a1.39 1.39 0 01-1.29-1.93h-4.07z"/><path d="M103.26 378.47l-10.55-27.13-12.12-6.14-13.74 7.42-3.85-5.9 15 1.66 20.1-4.55a5 5 0 013.15 3.85l9.08 30.79z" fill="#00aef2"/><path class="cls-6" d="M90.73 344.48a5 5 0 012.66 4l6.91 30h-6.59L84 352.87s-12.29 3-20.71 3a8.17 8.17 0 01-7.77-7.76v-1.39z"/><path class="cls-5" d="M84.07 343.58l3.62-5.58-8.48-17.83a7.48 7.48 0 00-6.75-4.26H61.64a9.09 9.09 0 00-7.9 4.6l-9.33 14a4 4 0 001.69 5.9l9.42 4.28v3.63l20.57-2.45-.55-19.31zm-31-6.65a1.44 1.44 0 01-.58-2.19l3.07-4.11V338z"/><path class="cls-3" d="M77.07 300.52c0-2.95-2.57-6.4-6.36-7.42a8.59 8.59 0 00-9.51 3.76l-.32.53a8.56 8.56 0 00-.92 7l2.5 7.38v4.15l3.67 1.76 3.47-1.76.06-4.49H73a4.25 4.25 0 004.19-4.25V304z"/><path class="cls-4" d="M73.58 306.89a1.87 1.87 0 01-3.74 0"/><path class="cls-3" d="M68.35 344.54a.91.91 0 00-.38-1.22l-3.5-1.82-2.35 1.15 5 2.27a.9.9 0 001.23-.38z"/><path class="cls-3" d="M68.23 346.58a.91.91 0 00-.38-1.22l-5.39-2.87-.83 1.59L67 347a.89.89 0 001.23-.42z"/><path class="cls-3" d="M66.68 347.74a.91.91 0 00-.38-1.22l-4.67-2.44-.83 1.6 4.67 2.44a.9.9 0 001.21-.38zm-3.04.44a.89.89 0 00-.39-1.21l-2.45-1.29-.84 1.6 2.46 1.28a.9.9 0 001.22-.38z"/><path class="cls-3" d="M60.9 347.77l-1.15-.6a2.18 2.18 0 01-.74-.61l-.76-.95 2.11-4.3h.1a5.38 5.38 0 014.38.41z"/><path d="M65.64 290.42a9.41 9.41 0 0111.42 5.92 6.61 6.61 0 01.42 1.87l-3.65.24-1.33-2.37-.58 2.46-6.37.45-4.19 9.94a31.23 31.23 0 01-2.45-5.63 9.72 9.72 0 016.73-12.88z"/><path class="cls-3" d="M65.5 304a1.72 1.72 0 11-1.71-1.72A1.71 1.71 0 0165.5 304z"/><path d="M70 290.11a3.38 3.38 0 11-3.38-3.38 3.38 3.38 0 013.38 3.38zm-4.42 5.63v11.46a9.53 9.53 0 01-1.36-6.63 16.5 16.5 0 011.36-4.83z"/><path class="cls-4" d="M101.51 346.37h-25a2.51 2.51 0 012.49-2.51h22.5z"/><path d="M106.47 346.25H84.53a2.05 2.05 0 01-2-2.48l3-14.09a2.05 2.05 0 012-1.62h21.94a2.05 2.05 0 012 2.48l-3 14.09a2.05 2.05 0 01-2 1.62z"/><path class="cls-4" d="M98.9 337.16a1.9 1.9 0 11-1.9-1.9 1.9 1.9 0 011.9 1.9z"/><path class="cls-7" d="M85.87 270.68a9.79 9.79 0 0110-10.06h8.29a10.2 10.2 0 110 20.4h-5.28l-5.58 2.05v-2.87c-5.44-1.38-7.43-4.96-7.43-9.52z"/><path class="cls-3" d="M423.94 251.55a5.78 5.78 0 01.78-3.26 11.38 11.38 0 012.79-2.51 5 5 0 001.65-1.63 4.11 4.11 0 00.6-2.23 3 3 0 00-.7-2.09 2.56 2.56 0 00-2-.78 2.49 2.49 0 00-1.75.64 2.53 2.53 0 00-.73 1.9h-5.14v-.09a5.68 5.68 0 012.07-4.88 8.94 8.94 0 015.58-1.63 8.52 8.52 0 015.84 1.88 6.37 6.37 0 012.13 5 6 6 0 01-1.16 3.59 8.28 8.28 0 01-3 2.58 3.58 3.58 0 00-1.35 1.41 5 5 0 00-.35 2.05zm5.26 6.45H424v-4.21h5.25z"/><path class="cls-7" d="M423.94 251.55a5.78 5.78 0 01.78-3.26 11.38 11.38 0 012.79-2.51 5 5 0 001.65-1.63 4.11 4.11 0 00.6-2.23 3 3 0 00-.7-2.09 2.56 2.56 0 00-2-.78 2.49 2.49 0 00-1.75.64 2.53 2.53 0 00-.73 1.9h-5.14v-.09a5.68 5.68 0 012.07-4.88 8.94 8.94 0 015.58-1.63 8.52 8.52 0 015.84 1.88 6.37 6.37 0 012.13 5 6 6 0 01-1.16 3.59 8.28 8.28 0 01-3 2.58 3.58 3.58 0 00-1.35 1.41 5 5 0 00-.35 2.05zm5.26 6.45H424v-4.21h5.25z"/><path class="cls-6" d="M440.08 330.12h-4.38V318h4.38zm0 6.66h-4.38v-3.65h4.38z"/><path class="cls-3" d="M378.84 265.49h18.74l5.06-10.77a3.59 3.59 0 00-3.62-5.1 3.62 3.62 0 00-1.65.6l-9.16 6.24-9.21-6.24a3.62 3.62 0 00-1.65-.6 3.59 3.59 0 00-3.62 5.1zM357.81 316l4.82-5.28-1.17-1.06-4.82 5.28a.8.8 0 00.05 1.12.79.79 0 001.12-.06z"/><path class="cls-3" d="M364.32 311.33l-.25.65a13.75 13.75 0 00-3.56 8.51v.24a1.26 1.26 0 01-1.51 1.17 1.29 1.29 0 01-1-1.11 13.66 13.66 0 012.53-9.48l2.21-3.05zm55.2 4.67l-4.82-5.28 1.17-1.06 4.82 5.28a.79.79 0 11-1.17 1.06z"/><path class="cls-3" d="M413 311.33l.24.65a13.69 13.69 0 013.56 8.51v.24a1.28 1.28 0 001.56 1.17 1.29 1.29 0 001-1.11 13.71 13.71 0 00-2.53-9.48l-2.21-3.05z"/><path class="cls-7" d="M415.63 309.55l-16.07-21.66-2-22.4-1.29-.38a28.54 28.54 0 00-15.92-.06l-1.53.44-1.21 22.6-15.91 21.46 2.49 2.4 12.16-12.76a17 17 0 0112.29-5.28 17 17 0 0112.36 5.25l12.16 12.67z"/><path d="M399 312v16a1.93 1.93 0 01-1.55 1.93 1.86 1.86 0 01-2.17-1.83v-4.64a1.88 1.88 0 00-1.88-1.86c-.87 0-1.83.61-1.83 1.42v15.68a1.92 1.92 0 01-1.54 1.93 1.85 1.85 0 01-2.17-1.83v-12.11a1.86 1.86 0 00-1.86-1.89 1.86 1.86 0 00-1.79 1.87v3.68a1.93 1.93 0 01-1.55 1.93 1.85 1.85 0 01-2.16-1.83v-21.7z"/><path class="cls-3" d="M399.57 308.89c.05 2.89-2.52 6.27-6.23 7.27a8.41 8.41 0 01-9.32-3.69l-.32-.52a8.4 8.4 0 01-.9-6.86l2.45-6.07v-4.32l3.45-2.61 3.52 2.62.08 4.64h3.25a4.17 4.17 0 014.11 4.17v1.93z"/><path class="cls-4" d="M396.16 303.82a1.84 1.84 0 10-3.67 0"/><path d="M387.58 308.09l12.33 2.63a6.5 6.5 0 01-.43 1.88 9.44 9.44 0 01-11.47 6 10 10 0 01-7.53-9.34c0-4.14 3.79-7.76 3.79-7.76z"/><path class="cls-3" d="M389.07 306.63a2.1 2.1 0 10-2.1 2.1 2.1 2.1 0 002.1-2.1z"/><path class="cls-6" d="M298.59 247.8a10.37 10.37 0 00-10.44-10.29h-8.29a10.2 10.2 0 100 20.4h5.25l6.52 2.5v-2.87a10.21 10.21 0 006.96-9.74z"/><path d="M295.87 377.35l.82 3.52-10-.46a2.61 2.61 0 013-1.8l1.27.26a1.26 1.26 0 001.24-1.69zm17.35-.35l-1.1 3.44 10 .32a2.6 2.6 0 00-2.85-2l-1.29.16a1.26 1.26 0 01-1.1-1.78z"/><path class="cls-5" d="M316.93 345.27l-2.6-23.7-9-3.56-.82.32-.83-.32-9 3.56-2.6 23.7a6.47 6.47 0 000 .88l.9 31.37 3.25 1.68s2.22-4 3.24-13.66a105.35 105.35 0 00.23-18.33l4.87-17.39 4.86 17.39a105.35 105.35 0 00.23 18.33c1 9.67 3.24 13.66 3.24 13.66l3.25-1.68.9-31.37a6.47 6.47 0 00-.12-.88z"/><path class="cls-3" d="M347.1 278.38l-6.86 2.18.48 1.52 6.87-2.18a.8.8 0 00.51-1 .78.78 0 00-1-.52z"/><path class="cls-3" d="M339.09 279.16l.54-.45a13.74 13.74 0 007.38-5.63l.13-.21a1.29 1.29 0 011.95-.24 1.29 1.29 0 01.3 1.46 13.79 13.79 0 01-7 7l-3.39 1.56zm-77.09-.78l6.86 2.18-.48 1.52-6.87-2.18a.81.81 0 01-.52-1 .8.8 0 011.01-.52z"/><path class="cls-3" d="M270 279.16l-.54-.45a13.74 13.74 0 01-7.38-5.63l-.13-.21a1.29 1.29 0 00-1.95-.24 1.29 1.29 0 00-.3 1.46 13.79 13.79 0 007 7l3.46 1.55z"/><path class="cls-6" d="M339.5 278.68L307.94 289h-6.75l-31.56-10.3-1 3.45L293.38 294l.74 27.6H315l.74-27.6 24.73-12z"/><path class="cls-3" d="M315.35 273.7c0-3-2.6-6.49-6.43-7.51a8.68 8.68 0 00-9.63 3.81l-.33.53a8.71 8.71 0 00-.93 7.09l2.53 7.48-.13 3.63 4 3.56 3.54-3.31v-4.33l3.29.1a4.32 4.32 0 004.24-4.31v-3.21z"/><path class="cls-7" d="M299.55 308.23a2.82 2.82 0 002.83-2.84l-.14-30.11 13.23-3.51a6.33 6.33 0 00-.42-1.83 9.18 9.18 0 00-11.13-5.78 9.53 9.53 0 00-7.2 9.28v32a2.82 2.82 0 002.83 2.79z"/><path class="cls-4" d="M311.83 280.15a1.9 1.9 0 01-3.8 0"/><path class="cls-3" d="M304.82 277.14a2.24 2.24 0 11-2.24-2.24 2.24 2.24 0 012.24 2.24z"/><path d="M227.87 364.46h-5.29v-14.67h5.29zm0 8.05h-5.29v-4.42h5.29z"/><path class="cls-2" d="M122.8 258.74h36.48a52.63 52.63 0 0112.33 1.36 25.21 25.21 0 019.76 4.54 20.85 20.85 0 016.36 8.47 33 33 0 012.27 13 27.05 27.05 0 01-4.08 15.06 20.55 20.55 0 01-12.26 8.55v.3a21.45 21.45 0 0114.34 7.74q5.31 6.51 5.3 17.41a43.36 43.36 0 01-1.66 12.11 24.65 24.65 0 01-5.64 10.06 28.33 28.33 0 01-10.44 6.89q-6.44 2.58-16 2.57H122.8zm28 44.34q9.09 0 13.25-3.25t4.16-11q0-7.71-3.79-10.89t-11.95-3.18h-7.87v28.3zm2.27 47.68q7.88 0 12.72-3.48t4.84-12.87a20.42 20.42 0 00-1.29-7.79 13.19 13.19 0 00-3.48-5 12.55 12.55 0 00-5.22-2.65 27.71 27.71 0 00-6.66-.75h-9.38v32.54z"/><path class="cls-5" d="M168.28 260.73a5.57 5.57 0 01.74-3.11 11.27 11.27 0 012.66-2.39 4.82 4.82 0 001.57-1.54 4 4 0 00.57-2.13 2.88 2.88 0 00-.66-2 2.43 2.43 0 00-1.91-.75 2.25 2.25 0 00-2.36 2.43H164v-.09a5.42 5.42 0 012-4.65 8.48 8.48 0 015.31-1.55 8.14 8.14 0 015.57 1.78 6.11 6.11 0 012 4.82 5.77 5.77 0 01-1.11 3.42 7.84 7.84 0 01-2.82 2.45 3.44 3.44 0 00-1.28 1.35 4.74 4.74 0 00-.34 2zm5 6.18h-5v-4h5z"/><path class="cls-3" d="M138.51 328.05h-4.37v-12.13h4.37zm0 6.66h-4.37v-3.65h4.37z"/></g></g></g></svg>